<?xml version="1.0" encoding="UTF-8" standalone="no"?>
<svg
   width="1000mm"
   height="69.908997mm"
   version="1.1"
   viewBox="0 0 2834.6456 198.16724"
   id="svg1"
   sodipodi:docname="araldika-logo.svg"
   inkscape:version="1.4 (e7c3feb1, 2024-10-09)"
   xmlns:inkscape="http://www.inkscape.org/namespaces/inkscape"
   xmlns:sodipodi="http://sodipodi.sourceforge.net/DTD/sodipodi-0.dtd"
   xmlns="http://www.w3.org/2000/svg"
   xmlns:svg="http://www.w3.org/2000/svg">
  <defs
     id="defs1">
    <rect
       x="-126.31579"
       y="-256.14035"
       width="957.84454"
       height="164.91228"
       id="rect1" />
    <rect
       x="-126.31579"
       y="-256.14035"
       width="957.84454"
       height="164.91228"
       id="rect1-1" />
  </defs>
  <sodipodi:namedview
     id="namedview1"
     pagecolor="#010101"
     bordercolor="#000000"
     borderopacity="0.4"
     inkscape:showpageshadow="2"
     inkscape:pageopacity="0.0"
     inkscape:pagecheckerboard="true"
     inkscape:deskcolor="#d1d1d1"
     inkscape:document-units="pt"
     inkscape:zoom="0.19285281"
     inkscape:cx="1444.1065"
     inkscape:cy="-62.223621"
     inkscape:window-width="1472"
     inkscape:window-height="891"
     inkscape:window-x="0"
     inkscape:window-y="37"
     inkscape:window-maximized="0"
     inkscape:current-layer="svg1">
    <inkscape:page
       x="0"
       y="0"
       width="2834.6455"
       height="198.16724"
       id="page1"
       margin="0"
       bleed="0" />
  </sodipodi:namedview>
  <g
     id="g1"
     transform="matrix(4.9286202,0,0,4.9286202,28.346418,16.781107)"
     inkscape:label="LogoType">
    <path
       d="m 161.82716,3.7724347 c -0.0218,-0.4559315 -0.39799,-0.8142738 -0.85394,-0.8142738 h -0.005 l -0.16657,5.389e-4 C 155.4686,2.958965 152.26174,1.0423071 151.13059,0.21817922 151.01118,0.13153212 150.83081,0 150.54786,0 c -0.2825,0 -0.46288,0.13099317 -0.58152,0.21790545 -1.13107,0.82413645 -4.33747,2.74052915 -9.67147,2.74075145 l -0.16648,-5.389e-4 h -0.006 c -0.45595,0 -0.83217,0.3583423 -0.85396,0.8142738 -0.0303,0.6357695 -0.61087,15.6524562 10.74028,22.5627122 l 0.0937,0.05768 c 0.13712,0.08385 0.29179,0.125789 0.44629,0.125789 0.15442,0 0.30918,-0.04193 0.44621,-0.125789 l 0.0922,-0.05602 C 162.43932,19.424636 161.85893,4.4079515 161.82787,3.772182 Z M 156.28474,18.733948 141.97785,4.6058775 c 4.33041,-0.3191026 7.19646,-1.8064092 8.56884,-2.7115638 1.47673,0.9736333 4.67937,2.6232999 9.57685,2.7648904 -0.0345,2.2115241 -0.4516,8.5727809 -3.83902,14.0749759 z"
       id="path1"
       sodipodi:nodetypes="cscccscccscccscccccccccc"
       style="fill:#f8f8f8;fill-opacity:1;stroke-width:0.0229854"
       inkscape:label="Shield Logo" />
    <path
       style="font-weight:bold;font-size:53.3333px;line-height:0;font-family:Montserrat;-inkscape-font-specification:'Montserrat, Bold';text-align:center;letter-spacing:0px;word-spacing:0px;white-space:pre;fill:#f8f8f8;stroke-linecap:round;stroke-linejoin:bevel;paint-order:fill markers stroke"
       d="m 236.63432,-240.45565 16.63999,-37.33331 h 8.53333 l 16.69332,37.33331 h -9.06666 l -13.65333,-32.95998 h 3.41333 l -13.70666,32.95998 z m 8.31999,-7.99999 2.29333,-6.56 h 19.19999 l 2.34667,6.56 z m 36.85335,7.99999 v -28.69331 h 7.94666 v 8.10666 l -1.12,-2.34667 q 1.28,-3.03999 4.10667,-4.58666 2.82666,-1.6 6.87999,-1.6 v 7.68 q -0.53333,-0.0533 -0.95999,-0.0533 -0.42667,-0.0533 -0.90667,-0.0533 -3.41333,0 -5.54666,1.97333 -2.08,1.92 -2.08,6.02666 v 13.54666 z m 38.50421,0 v -5.59999 l -0.53333,-1.22667 v -10.02666 q 0,-2.66667 -1.65333,-4.16 -1.6,-1.49333 -4.96,-1.49333 -2.29333,0 -4.53333,0.74667 -2.18667,0.69333 -3.73333,1.92 l -2.98667,-5.81333 q 2.34667,-1.65334 5.65333,-2.56 3.30667,-0.90667 6.72,-0.90667 6.56,0 10.18666,3.09333 3.62666,3.09333 3.62666,9.65333 v 16.37332 z m -8.74666,0.42667 q -3.36,0 -5.76,-1.12 -2.39999,-1.17333 -3.67999,-3.14666 -1.28,-1.97334 -1.28,-4.42667 0,-2.56 1.22666,-4.48 1.28,-1.91999 4,-2.98666 2.72,-1.12 7.09333,-1.12 h 7.62666 v 4.85333 h -6.71999 q -2.93334,0 -4.05334,0.96 -1.06666,0.96 -1.06666,2.4 0,1.6 1.22666,2.56 1.28,0.90666 3.46667,0.90666 2.08,0 3.73333,-0.96 1.65333,-1.01333 2.4,-2.93333 l 1.28,3.84 q -0.90667,2.77333 -3.30667,4.21333 -2.39999,1.44 -6.18666,1.44 z m 24.05335,-0.42667 v -39.57331 h 8.31999 v 39.57331 z m 28.37335,0.42667 q -4.05333,0 -7.30666,-1.81333 -3.25333,-1.86667 -5.17333,-5.17333 -1.86667,-3.30667 -1.86667,-7.78666 0,-4.53334 1.86667,-7.84 1.92,-3.30666 5.17333,-5.12 3.25333,-1.81333 7.30666,-1.81333 3.62667,0 6.34667,1.6 2.71999,1.6 4.21333,4.85333 1.49333,3.25333 1.49333,8.32 0,5.01333 -1.44,8.31999 -1.44,3.25333 -4.16,4.85333 -2.66666,1.6 -6.45333,1.6 z m 1.44,-6.82666 q 2.02667,0 3.68,-0.96 1.65333,-0.96 2.61333,-2.72 1.01333,-1.81333 1.01333,-4.26666 0,-2.50667 -1.01333,-4.26667 -0.96,-1.76 -2.61333,-2.72 -1.65333,-0.96 -3.68,-0.96 -2.08,0 -3.73333,0.96 -1.65333,0.96 -2.66666,2.72 -0.96,1.76 -0.96,4.26667 0,2.45333 0.96,4.26666 1.01333,1.76 2.66666,2.72 1.65333,0.96 3.73333,0.96 z m 7.52,6.39999 v -5.86666 l 0.16,-8.53333 -0.53334,-8.47999 v -16.69333 h 8.32 v 39.57331 z m 15.62663,0 v -28.69331 h 8.31999 v 28.69331 z m 4.15999,-32.69331 q -2.29333,0 -3.73333,-1.33333 -1.44,-1.33334 -1.44,-3.30667 0,-1.97333 1.44,-3.30666 1.44,-1.33333 3.73333,-1.33333 2.29334,0 3.73333,1.27999 1.44,1.22667 1.44,3.2 0,2.08 -1.44,3.46667 -1.38666,1.33333 -3.73333,1.33333 z m 18.77336,26.82665 0.21334,-10.13333 13.38665,-12.69332 h 9.92 l -12.85333,13.06666 -4.32,3.51999 z m -6.87999,5.86666 v -39.57331 h 8.31999 v 39.57331 z m 21.38665,0 -9.70666,-12.05332 5.22666,-6.45333 14.55999,18.50665 z m 30.61333,0 v -5.59999 l -0.53333,-1.22667 v -10.02666 q 0,-2.66667 -1.65334,-4.16 -1.6,-1.49333 -4.95999,-1.49333 -2.29333,0 -4.53333,0.74667 -2.18667,0.69333 -3.73333,1.92 l -2.98667,-5.81333 q 2.34667,-1.65334 5.65333,-2.56 3.30667,-0.90667 6.72,-0.90667 6.55999,0 10.18666,3.09333 3.62666,3.09333 3.62666,9.65333 v 16.37332 z m -8.74666,0.42667 q -3.36,0 -5.76,-1.12 -2.4,-1.17333 -3.68,-3.14666 -1.28,-1.97334 -1.28,-4.42667 0,-2.56 1.22667,-4.48 1.28,-1.91999 4,-2.98666 2.72,-1.12 7.09333,-1.12 h 7.62666 v 4.85333 h -6.72 q -2.93333,0 -4.05333,0.96 -1.06666,0.96 -1.06666,2.4 0,1.6 1.22666,2.56 1.28,0.90666 3.46667,0.90666 2.08,0 3.73333,-0.96 1.65333,-1.01333 2.4,-2.93333 l 1.28,3.84 q -0.90667,2.77333 -3.30667,4.21333 -2.4,1.44 -6.18666,1.44 z"
       id="text1"
       inkscape:label="Araldika"
       transform="matrix(0.58496853,0,0,0.58496853,-138.34493,166.07)"
       aria-label="Araldika" />
    <path
       d="M 43.939861,-241.98901 H 39.40653 L 34.2332,-253.829 H 18.499876 l -4.69333,11.83999 H 9.5398814 l 14.0799916,-35.19998 h 4.85333 z m -23.946652,-15.57332 h 12.586659 l -6.61333,-15.14666 z m 40.906652,-5.01333 q -0.853332,-0.48 -1.706665,-0.74667 -0.853333,-0.32 -1.653333,-0.32 -1.066666,0 -2.026665,0.58667 -0.959999,0.58666 -1.759999,1.6 -0.799999,1.01333 -1.439999,2.34666 -0.586666,1.33333 -0.906666,2.77333 v 14.34666 h -3.733331 v -24.53332 h 2.933331 l 0.426667,5.38667 h 0.213333 q 0.373333,-1.22667 0.959999,-2.34667 0.64,-1.12 1.493333,-1.97333 0.906666,-0.85333 2.026665,-1.33333 1.12,-0.53334 2.559999,-0.53334 1.013332,0 2.133332,0.37334 1.119999,0.32 1.599999,0.85333 z m 22.826673,20.58665 v -16.21332 q 0,-3.25333 -1.493332,-4.58667 -1.493332,-1.38666 -3.733331,-1.38666 -2.719999,0 -4.906664,1.70666 -2.186665,1.65334 -3.146665,4.74667 v 15.73332 h -3.733331 v -24.53332 h 2.933332 l 0.426666,4.58667 h 0.213333 q 0.693333,-2.24 2.879999,-3.78667 2.239998,-1.6 5.759996,-1.6 3.199998,0 5.33333,1.44 2.186666,1.38667 2.773332,3.94667 0.533333,-1.06667 1.333333,-2.02667 0.799999,-0.96 1.919998,-1.70666 1.12,-0.74667 2.559999,-1.17334 1.439999,-0.48 3.253331,-0.48 1.653333,0 3.146665,0.48 1.546665,0.42667 2.666665,1.44 1.17333,1.01333 1.86667,2.66667 0.69333,1.65333 0.69333,4.05333 v 16.69332 h -3.73333 v -16.21332 q 0,-3.25333 -1.493335,-4.58667 -1.493332,-1.38666 -3.733331,-1.38666 -2.719998,0 -4.906664,1.70666 -2.186665,1.65334 -3.146665,4.74667 v 15.73332 z m 39.573266,-25.33332 q 3.25333,0 5.6,1.12 2.34666,1.06667 3.84,2.93333 1.54666,1.81334 2.23999,4.21333 0.74667,2.34667 0.74667,4.96 0,2.61333 -0.74667,4.96 -0.69333,2.29333 -2.18666,4.05333 -1.49333,1.70667 -3.84,2.72 -2.29333,1.01333 -5.44,1.01333 -3.25333,0 -5.65333,-1.06667 -2.34666,-1.06666 -3.89333,-2.82666 -1.54666,-1.81333 -2.29333,-4.16 -0.74666,-2.34666 -0.74666,-4.95999 0,-2.61334 0.74666,-4.96 0.74667,-2.34667 2.24,-4.10667 1.54667,-1.81333 3.89333,-2.82666 2.34667,-1.06667 5.49333,-1.06667 z m 0.16,23.14666 q 2.13333,0 3.68,-0.8 1.6,-0.8 2.61333,-2.13334 1.06667,-1.38666 1.54667,-3.14666 0.48,-1.81333 0.48,-3.78667 0,-2.02666 -0.53334,-3.89333 -0.48,-1.86666 -1.54666,-3.25333 -1.06667,-1.44 -2.72,-2.29333 -1.6,-0.85333 -3.84,-0.85333 -2.18666,0 -3.73333,0.8 -1.54667,0.8 -2.56,2.13333 -1.01333,1.33333 -1.49333,3.14666 -0.48,1.76 -0.48,3.73334 0,2.02666 0.48,3.89333 0.53333,1.86666 1.54666,3.30666 1.06667,1.44 2.66667,2.29333 1.65333,0.85334 3.89333,0.85334 z m 32.21336,-18.39999 q -0.85333,-0.48 -1.70666,-0.74667 -0.85334,-0.32 -1.65334,-0.32 -1.06666,0 -2.02666,0.58667 -0.96,0.58666 -1.76,1.6 -0.8,1.01333 -1.44,2.34666 -0.58667,1.33333 -0.90667,2.77333 v 14.34666 h -3.73333 v -24.53332 h 2.93333 l 0.42667,5.38667 h 0.21333 q 0.37334,-1.22667 0.96,-2.34667 0.64,-1.12 1.49334,-1.97333 0.90666,-0.85333 2.02666,-1.33333 1.12,-0.53334 2.56,-0.53334 1.01333,0 2.13333,0.37334 1.12,0.32 1.6,0.85333 z m 17.44001,20.79998 q -0.8,1.70667 -1.92,4 -1.12,2.34667 -2.66666,4.42667 -1.54667,2.07999 -3.62667,3.51999 -2.08,1.49334 -4.69333,1.49334 -0.42666,0 -0.64,-0.0533 -0.21333,0 -0.48,-0.10666 l -0.69333,-3.52 q 0.16,0.0533 0.37333,0.10667 0.21334,0.0533 0.74667,0.0533 1.06667,0 1.97333,-0.21333 0.96,-0.21334 1.86667,-0.85334 1.86666,-1.33333 3.35999,-3.89333 1.54667,-2.56 2.77334,-5.97333 l -12.26666,-23.73332 h 4.42666 l 9.76,20.42666 8.74666,-20.42666 h 4.21333 z m 43.41329,-0.21333 -0.42666,-4.37333 h -0.21334 q -0.63999,1.01333 -1.70666,1.92 -1.06667,0.90667 -2.4,1.6 -1.28,0.69333 -2.82666,1.06666 -1.49334,0.42667 -2.98667,0.42667 -3.52,0 -5.28,-2.02666 -1.76,-2.08 -1.76,-5.17333 0,-3.04 1.54667,-4.85334 1.54667,-1.81333 3.78667,-2.71999 2.23999,-0.90667 4.69333,-1.17334 2.50666,-0.26666 4.37333,-0.26666 h 2.39999 v -0.64 q 0,-2.02667 -0.58666,-3.09333 -0.53333,-1.06667 -1.6,-1.81334 -0.90667,-0.58666 -1.97333,-0.8 -1.01334,-0.26666 -2.72,-0.26666 -2.24,0 -3.94667,0.58666 -1.70666,0.58667 -3.30666,1.54667 l -0.85333,-3.2 q 3.57333,-2.08 8.53333,-2.08 1.97333,0 3.73333,0.37334 1.76,0.32 3.09333,1.17333 1.54666,0.96 2.45333,2.72 0.90667,1.76 0.90667,4.37333 v 16.69332 z m -9.43999,-2.50666 q 2.18667,0 4.64,-1.38667 2.45333,-1.38667 3.99999,-4 v -4.95999 h -0.47999 q -2.18667,0 -4.37334,0.16 -2.18666,0.16 -3.99999,0.79999 -1.76,0.64 -2.88,1.86667 -1.12,1.17333 -1.12,3.25333 0,2.08 1.12,3.2 1.17333,1.06667 3.09333,1.06667 z m 37.65326,2.50666 v -16.21332 q 0,-3.2 -1.44,-4.58667 -1.43999,-1.38666 -3.67999,-1.38666 -1.33334,0 -2.66667,0.42666 -1.28,0.42667 -2.4,1.28 -1.12,0.8 -1.97333,2.02667 -0.85333,1.17333 -1.33333,2.72 v 15.73332 h -3.73333 v -24.53332 h 2.93333 l 0.42666,4.58667 h 0.21334 q 0.69333,-2.24 3.09333,-3.78667 2.4,-1.6 5.97333,-1.6 1.70667,0 3.2,0.48 1.54666,0.42667 2.66666,1.44 1.12,1.01333 1.76,2.66667 0.69333,1.65333 0.69333,4.05333 v 16.69332 z m 21.01333,0.64 q -2.72,0 -4.74667,-1.06667 -2.02666,-1.06666 -3.36,-2.82666 -1.33333,-1.76 -2.02666,-4.05333 -0.64,-2.34667 -0.64,-4.90666 0,-2.61334 0.69333,-5.01334 0.74667,-2.39999 2.13333,-4.15999 1.44,-1.81334 3.57333,-2.88 2.13334,-1.06667 4.96,-1.06667 3.57333,0 5.86666,1.54667 2.29334,1.54666 2.98667,3.84 v -19.51999 h 3.73333 v 39.46664 h -2.93333 l -0.42667,-4.37333 h -0.21333 q -1.28,1.97333 -3.73333,3.52 -2.45333,1.49333 -5.86666,1.49333 z m 0.42666,-3.14666 q 2.56,0 5.01333,-1.38667 2.50667,-1.38667 4,-4 v -7.83999 q -0.96,-3.04 -3.25333,-4.74667 -2.24,-1.70666 -5.06667,-1.70666 -1.86666,0 -3.35999,0.74666 -1.44,0.74667 -2.45334,2.08 -1.01333,1.33334 -1.59999,3.2 -0.53334,1.86667 -0.53334,4.10666 0,1.70667 0.37334,3.41334 0.37333,1.70666 1.22666,3.09333 0.85333,1.33333 2.24,2.18666 1.38667,0.85334 3.41333,0.85334 z m 50.1334,-32.95998 q 4.15999,0 7.35999,1.43999 3.2,1.44 5.38667,3.94667 2.18666,2.45333 3.30666,5.70666 1.12,3.25333 1.12,6.82666 0,3.52 -1.12,6.82667 -1.06667,3.25333 -3.30666,5.81333 -2.18667,2.50666 -5.49333,4.05333 -3.25334,1.49333 -7.62667,1.49333 -4.26666,0 -7.41333,-1.44 -3.14666,-1.44 -5.22666,-3.89333 -2.08,-2.45333 -3.14666,-5.65333 -1.01334,-3.25333 -1.01334,-6.82666 0,-3.78667 1.12,-7.09333 1.17334,-3.36 3.36,-5.81333 2.18667,-2.50667 5.38666,-3.94667 3.2,-1.43999 7.30667,-1.43999 z m -0.26667,32.58664 q 3.46666,0 5.92,-1.12 2.50666,-1.12 4.05333,-3.09333 1.6,-1.97333 2.34666,-4.58666 0.74667,-2.66667 0.74667,-5.70667 0,-3.25333 -0.8,-5.91999 -0.74667,-2.66667 -2.34667,-4.58667 -1.54666,-1.91999 -3.99999,-2.98666 -2.45334,-1.06667 -5.81333,-1.06667 -3.41333,0 -5.81333,1.06667 -2.4,1.01333 -3.89333,2.93333 -1.49334,1.86667 -2.18667,4.48 -0.69333,2.61333 -0.69333,5.76 0,7.35999 3.2,11.09332 3.19999,3.73333 9.27999,3.73333 z m 37.44002,-17.70665 q -0.85333,-0.48 -1.70667,-0.74667 -0.85333,-0.32 -1.65333,-0.32 -1.06666,0 -2.02666,0.58667 -0.96,0.58666 -1.76,1.6 -0.8,1.01333 -1.44,2.34666 -0.58667,1.33333 -0.90667,2.77333 v 14.34666 h -3.73333 v -24.53332 h 2.93333 l 0.42667,5.38667 h 0.21333 q 0.37334,-1.22667 0.96,-2.34667 0.64,-1.12 1.49333,-1.97333 0.90667,-0.85333 2.02667,-1.33333 1.12,-0.53334 2.56,-0.53334 1.01333,0 2.13333,0.37334 1.12,0.32 1.6,0.85333 z m 14.45332,21.22665 q -2.72,0 -4.74666,-1.06667 -2.02667,-1.06666 -3.36,-2.82666 -1.33333,-1.76 -2.02667,-4.05333 -0.63999,-2.34667 -0.63999,-4.90666 0,-2.61334 0.69333,-5.01334 0.74666,-2.39999 2.13333,-4.15999 1.44,-1.81334 3.57333,-2.88 2.13333,-1.06667 4.96,-1.06667 3.57333,0 5.86666,1.54667 2.29333,1.54666 2.98667,3.84 v -19.51999 h 3.73333 v 39.46664 h -2.93333 l -0.42667,-4.37333 h -0.21333 q -1.28,1.97333 -3.73333,3.52 -2.45334,1.49333 -5.86667,1.49333 z m 0.42667,-3.14666 q 2.56,0 5.01333,-1.38667 2.50666,-1.38667 4,-4 v -7.83999 q -0.96,-3.04 -3.25333,-4.74667 -2.24,-1.70666 -5.06667,-1.70666 -1.86666,0 -3.36,0.74666 -1.44,0.74667 -2.45333,2.08 -1.01333,1.33334 -1.6,3.2 -0.53333,1.86667 -0.53333,4.10666 0,1.70667 0.37333,3.41334 0.37334,1.70666 1.22667,3.09333 0.85333,1.33333 2.24,2.18666 1.38666,0.85334 3.41333,0.85334 z m 24.80002,2.50666 h -3.73333 v -24.53332 h 3.73333 z m -4.53333,-33.49331 q 0,-1.06667 0.74667,-1.92 0.8,-0.85333 1.92,-0.85333 1.06666,0 1.92,0.85333 0.85333,0.85333 0.85333,1.92 0,1.12 -0.85333,1.92 -0.85334,0.74666 -1.92,0.74666 -1.12,0 -1.92,-0.74666 -0.74667,-0.8 -0.74667,-1.92 z m 30.07997,33.49331 v -16.21332 q 0,-3.2 -1.44,-4.58667 -1.44,-1.38666 -3.67999,-1.38666 -1.33334,0 -2.66667,0.42666 -1.28,0.42667 -2.4,1.28 -1.12,0.8 -1.97333,2.02667 -0.85333,1.17333 -1.33333,2.72 v 15.73332 h -3.73333 v -24.53332 h 2.93333 l 0.42666,4.58667 h 0.21334 q 0.69333,-2.24 3.09333,-3.78667 2.4,-1.6 5.97333,-1.6 1.70666,0 3.2,0.48 1.54666,0.42667 2.66666,1.44 1.12,1.01333 1.76,2.66667 0.69333,1.65333 0.69333,4.05333 v 16.69332 z m 27.41332,0 -0.42667,-4.37333 h -0.21333 q -0.64,1.01333 -1.70667,1.92 -1.06666,0.90667 -2.39999,1.6 -1.28,0.69333 -2.82667,1.06666 -1.49333,0.42667 -2.98666,0.42667 -3.52,0 -5.28,-2.02666 -1.76,-2.08 -1.76,-5.17333 0,-3.04 1.54667,-4.85334 1.54666,-1.81333 3.78666,-2.71999 2.24,-0.90667 4.69333,-1.17334 2.50667,-0.26666 4.37333,-0.26666 h 2.4 v -0.64 q 0,-2.02667 -0.58667,-3.09333 -0.53333,-1.06667 -1.59999,-1.81334 -0.90667,-0.58666 -1.97334,-0.8 -1.01333,-0.26666 -2.72,-0.26666 -2.23999,0 -3.94666,0.58666 -1.70667,0.58667 -3.30666,1.54667 l -0.85334,-3.2 q 3.57333,-2.08 8.53333,-2.08 1.97333,0 3.73333,0.37334 1.76,0.32 3.09333,1.17333 1.54667,0.96 2.45334,2.72 0.90666,1.76 0.90666,4.37333 v 16.69332 z m -9.43999,-2.50666 q 2.18666,0 4.63999,-1.38667 2.45333,-1.38667 4,-4 v -4.95999 h -0.48 q -2.18666,0 -4.37333,0.16 -2.18667,0.16 -4,0.79999 -1.76,0.64 -2.88,1.86667 -1.12,1.17333 -1.12,3.25333 0,2.08 1.12,3.2 1.17334,1.06667 3.09334,1.06667 z m 33.65326,-18.07999 q -0.85333,-0.48 -1.70666,-0.74667 -0.85334,-0.32 -1.65334,-0.32 -1.06666,0 -2.02666,0.58667 -0.96,0.58666 -1.76,1.6 -0.8,1.01333 -1.44,2.34666 -0.58667,1.33333 -0.90667,2.77333 v 14.34666 h -3.73333 v -24.53332 h 2.93333 l 0.42667,5.38667 h 0.21333 q 0.37334,-1.22667 0.96,-2.34667 0.64,-1.12 1.49334,-1.97333 0.90666,-0.85333 2.02666,-1.33333 1.12,-0.53334 2.56,-0.53334 1.01333,0 2.13333,0.37334 1.12,0.32 1.6,0.85333 z m 17.44001,20.79998 q -0.8,1.70667 -1.92,4 -1.12,2.34667 -2.66666,4.42667 -1.54667,2.07999 -3.62667,3.51999 -2.08,1.49334 -4.69333,1.49334 -0.42666,0 -0.64,-0.0533 -0.21333,0 -0.48,-0.10666 l -0.69333,-3.52 q 0.16,0.0533 0.37333,0.10667 0.21334,0.0533 0.74667,0.0533 1.06666,0 1.97333,-0.21333 0.96,-0.21334 1.86667,-0.85334 1.86666,-1.33333 3.35999,-3.89333 1.54667,-2.56 2.77334,-5.97333 l -12.26666,-23.73332 h 4.42666 l 9.76,20.42666 8.74666,-20.42666 h 4.21333 z m 38.61331,-25.54665 q 3.25333,0 5.6,1.12 2.34666,1.06667 3.84,2.93333 1.54666,1.81334 2.24,4.21333 0.74666,2.34667 0.74666,4.96 0,2.61333 -0.74666,4.96 -0.69334,2.29333 -2.18667,4.05333 -1.49333,1.70667 -3.84,2.72 -2.29333,1.01333 -5.43999,1.01333 -3.25334,0 -5.65333,-1.06667 -2.34667,-1.06666 -3.89334,-2.82666 -1.54666,-1.81333 -2.29333,-4.16 -0.74666,-2.34666 -0.74666,-4.95999 0,-2.61334 0.74666,-4.96 0.74667,-2.34667 2.24,-4.10667 1.54667,-1.81333 3.89333,-2.82666 2.34667,-1.06667 5.49333,-1.06667 z m 0.16,23.14666 q 2.13333,0 3.68,-0.8 1.6,-0.8 2.61333,-2.13334 1.06667,-1.38666 1.54667,-3.14666 0.48,-1.81333 0.48,-3.78667 0,-2.02666 -0.53334,-3.89333 -0.48,-1.86666 -1.54666,-3.25333 -1.06667,-1.44 -2.72,-2.29333 -1.6,-0.85333 -3.84,-0.85333 -2.18666,0 -3.73333,0.8 -1.54666,0.8 -2.56,2.13333 -1.01333,1.33333 -1.49333,3.14666 -0.48,1.76 -0.48,3.73334 0,2.02666 0.48,3.89333 0.53333,1.86666 1.54667,3.30666 1.06666,1.44 2.66666,2.29333 1.65333,0.85334 3.89333,0.85334 z m 20.05337,-19.83999 h -4.10666 v -1.97333 l 4.10666,-0.48 q 0,-2.98667 0.16,-5.12 0.21333,-2.13333 0.53333,-3.57333 0.32,-1.49333 0.69334,-2.4 0.42666,-0.96 0.8,-1.54667 1.01333,-1.49333 2.50666,-2.02666 1.49333,-0.58667 3.09333,-0.58667 0.21334,0 0.74667,0.0533 0.53333,0 1.17333,0.10667 0.69333,0.0533 1.38667,0.26667 0.69333,0.16 1.33333,0.48 l -0.90667,3.14666 q -0.16,0 -0.74666,-0.16 -0.58667,-0.21333 -1.33334,-0.42666 -0.69333,-0.26667 -1.54666,-0.48 -0.8,-0.21334 -1.44,-0.21334 -0.8,0 -1.33333,0.48 -0.53334,0.42667 -0.85334,1.49334 -0.26666,1.01333 -0.42666,2.71999 -0.10667,1.70667 -0.10667,4.21333 v 3.52 h 5.76 v 2.50667 h -5.76 v 22.02665 h -3.73333 z m 45.01341,17.01332 11.94666,-30.18665 h 5.12 v 35.19998 h -4 v -26.61332 l -10.77333,26.61332 h -4.79999 l -10.82666,-26.66665 v 26.66665 h -4 v -35.19998 h 5.38666 z m 41.54664,5.01333 -0.42667,-4.37333 h -0.21333 q -0.64,1.01333 -1.70667,1.92 -1.06666,0.90667 -2.4,1.6 -1.27999,0.69333 -2.82666,1.06666 -1.49333,0.42667 -2.98667,0.42667 -3.51999,0 -5.27999,-2.02666 -1.76,-2.08 -1.76,-5.17333 0,-3.04 1.54666,-4.85334 1.54667,-1.81333 3.78667,-2.71999 2.24,-0.90667 4.69333,-1.17334 2.50666,-0.26666 4.37333,-0.26666 h 2.4 v -0.64 q 0,-2.02667 -0.58667,-3.09333 -0.53333,-1.06667 -1.6,-1.81334 -0.90666,-0.58666 -1.97333,-0.8 -1.01333,-0.26666 -2.72,-0.26666 -2.24,0 -3.94666,0.58666 -1.70667,0.58667 -3.30667,1.54667 l -0.85333,-3.2 q 3.57333,-2.08 8.53333,-2.08 1.97333,0 3.73333,0.37334 1.76,0.32 3.09333,1.17333 1.54667,0.96 2.45333,2.72 0.90667,1.76 0.90667,4.37333 v 16.69332 z m -9.44,-2.50666 q 2.18667,0 4.64,-1.38667 2.45333,-1.38667 4,-4 v -4.95999 h -0.48 q -2.18667,0 -4.37333,0.16 -2.18667,0.16 -4,0.79999 -1.76,0.64 -2.88,1.86667 -1.12,1.17333 -1.12,3.25333 0,2.08 1.12,3.2 1.17334,1.06667 3.09333,1.06667 z m 24.47994,2.50666 h -3.73333 v -39.46664 h 3.73333 z m 9.76003,-22.02665 h -4.10666 v -1.97333 l 4.21333,-0.53334 0.8,-7.41333 h 2.82666 v 7.41333 h 5.76 v 2.50667 h -5.76 v 17.01332 q 0,1.70667 0.48,2.24 0.53333,0.53333 1.6,0.53333 1.22667,0 2.18666,-0.37333 0.96,-0.37333 1.70667,-0.90667 l 0.74667,2.82667 q -0.90667,0.42666 -2.4,0.85333 -1.44,0.42667 -3.2,0.42667 -1.70667,0 -2.66666,-0.48 -0.96,-0.48 -1.44,-1.28 -0.48,-0.8 -0.64,-1.76 -0.10667,-1.01333 -0.10667,-1.97333 z m 31.14662,22.02665 -0.42666,-4.37333 h -0.21334 q -0.64,1.01333 -1.70666,1.92 -1.06667,0.90667 -2.4,1.6 -1.28,0.69333 -2.82667,1.06666 -1.49333,0.42667 -2.98666,0.42667 -3.52,0 -5.28,-2.02666 -1.76,-2.08 -1.76,-5.17333 0,-3.04 1.54667,-4.85334 1.54666,-1.81333 3.78666,-2.71999 2.24,-0.90667 4.69333,-1.17334 2.50667,-0.26666 4.37333,-0.26666 h 2.4 v -0.64 q 0,-2.02667 -0.58666,-3.09333 -0.53334,-1.06667 -1.6,-1.81334 -0.90667,-0.58666 -1.97333,-0.8 -1.01334,-0.26666 -2.72,-0.26666 -2.24,0 -3.94667,0.58666 -1.70666,0.58667 -3.30666,1.54667 l -0.85333,-3.2 q 3.57333,-2.08 8.53332,-2.08 1.97334,0 3.73333,0.37334 1.76,0.32 3.09334,1.17333 1.54666,0.96 2.45333,2.72 0.90666,1.76 0.90666,4.37333 v 16.69332 z m -9.43999,-2.50666 q 2.18666,0 4.64,-1.38667 2.45333,-1.38667 3.99999,-4 v -4.95999 h -0.48 q -2.18666,0 -4.37333,0.16 -2.18666,0.16 -3.99999,0.79999 -1.76,0.64 -2.88,1.86667 -1.12,1.17333 -1.12,3.25333 0,2.08 1.12,3.2 1.17333,1.06667 3.09333,1.06667 z"
       id="text1-9"
       style="font-size:53.3333px;line-height:0;font-family:'Quattrocento Sans';-inkscape-font-specification:'Quattrocento Sans, Normal';text-align:center;letter-spacing:0px;word-spacing:0px;white-space:pre;fill:#f8f8f8;stroke-linecap:round;stroke-linejoin:bevel;paint-order:fill markers stroke"
       inkscape:label="Armory and Ordinary of Malta"
       transform="matrix(0.58496853,0,0,0.58496853,158.81166,166.96698)"
       aria-label="Armory and Ordinary of Malta" />
  </g>
</svg>
